<svg xmlns="http://www.w3.org/2000/svg" version="1.1" xmlns:xlink="http://www.w3.org/1999/xlink" xmlns:svgjs="http://svgjs.dev/svgjs" viewBox="0 0 800 800"><defs><filter id="uuunion-blur" x="-100%" y="-100%" width="400%" height="400%" color-interpolation-filters="sRGB">
        <feGaussianBlur in="SourceGraphic" stdDeviation="7.5 0" result="blur"></feGaussianBlur>
        <feDropShadow stdDeviation="12.307692307692308" in="blur" dx="10" dy="10" flood-color="#F29418" flood-opacity="0.25" x="0%" y="0%" width="100%" height="100%"></feDropShadow>
      </filter><filter id="uuunion-blur2" x="-100%" y="-100%" width="400%" height="400%" color-interpolation-filters="sRGB">
        <feGaussianBlur in="SourceGraphic" stdDeviation="7.5 0" result="blur"></feGaussianBlur>
        <feDropShadow stdDeviation="12.307692307692308" in="blur" dx="-10" dy="-10" flood-color="#F29418" flood-opacity="0.25" x="0%" y="0%" width="100%" height="100%"></feDropShadow>
      </filter><linearGradient gradientTransform="rotate(0, 0.5, 0.5)" x1="50%" y1="0%" x2="50%" y2="100%" id="uuunion-grad"><stop stop-color="#faebd7" offset="10%"></stop><stop stop-color="#F29418" offset="90%"></stop></linearGradient><linearGradient gradientTransform="rotate(135, 0.5, 0.5)" x1="50%" y1="0%" x2="50%" y2="100%" id="uuunion-grad2"><stop stop-color="#faebd7" offset="25%"></stop><stop stop-color="#F29418" offset="100%"></stop></linearGradient><linearGradient gradientTransform="rotate(333, 0.5, 0.5)" x1="50%" y1="0%" x2="50%" y2="100%" id="uuunion-grad3"><stop stop-color="#faebd7" offset="0%"></stop><stop stop-color="#F29418" offset="75%"></stop></linearGradient></defs><path d="M-79.8 -79.21Q-64.87 -76.84 -49.94 -74.71 -35.01 -72.98 -20.08 -71.79 -5.15 -71.23 9.77 -71.35 24.7 -72.12 39.63 -73.5 54.56 -75.38 69.49 -77.61 84.42 -80.02 99.35 -82.44 114.28 -84.66 129.21 -86.53 144.14 -87.89 159.07 -88.65 174 -88.75 188.93 -88.18 203.86 -86.98 218.79 -85.24 233.72 -83.1 248.65 -80.72 263.58 -78.29 278.51 -75.99 293.44 -73.99 308.37 -72.46 323.3 -71.5 338.23 -71.2 353.16 -71.56 368.09 -72.58 383.02 -74.16 397.95 -76.19 412.88 -78.52 427.81 -80.95 442.74 -83.31 457.67 -85.42 472.6 -87.11 487.53 -88.26 502.46 -88.77 517.39 -88.61 532.32 -87.79 547.25 -86.37 562.18 -84.46 577.11 -82.21 592.04 -79.79 606.97 -77.39 621.9 -75.18 636.83 -73.35 651.76 -72.02 666.69 -71.31 681.62 -71.26 696.55 -71.88 711.48 -73.12 726.41 -74.89 741.34 -77.05 756.27 -79.44 771.2 -81.87 786.13 -84.16 801.06 -86.12 815.99 -87.62 830.92 -88.53 845.85 -88.79 862.32 -80.44 856.84 -57.69 856.8 -42.88 863.73 -28.06 875.56 -13.25 888.72 1.55 899.26 16.36 904 31.18 901.52 45.99 892.57 60.8 879.84 75.62 867.15 90.43 858.33 105.24 856.02 120.05 860.93 134.87 871.57 149.68 884.74 164.49 896.49 179.31 903.28 194.12 903.06 208.93 895.91 223.74 883.97 238.56 870.83 253.37 860.45 268.18 855.95 283 858.68 297.81 867.83 312.62 880.63 327.43 893.24 342.25 901.87 357.06 903.92 371.87 898.77 386.69 887.98 401.5 874.78 416.31 863.16 431.12 856.6 445.94 857.07 460.75 864.44 475.56 876.49 490.37 889.59 505.19 899.81 520 904.06 534.81 901.08 549.63 891.75 564.44 878.89 579.25 866.36 594.06 857.93 608.88 856.14 623.69 861.52 638.5 872.46 653.32 885.67 668.13 897.17 682.94 903.5 697.75 902.77 712.57 895.18 727.38 883.03 742.19 869.96 757.01 859.91 771.82 855.91 786.63 859.14 801.44 868.65 816.26 881.57 831.07 890.45 851.89 871.52 856.81 856.16 857.49 840.79 859.89 825.43 863.84 810.07 869.03 794.7 875.05 779.34 881.46 763.98 887.75 748.61 893.45 733.25 898.12 717.88 901.39 702.52 903.03 687.16 902.9 671.79 901.02 656.43 897.52 641.07 892.68 625.7 886.87 610.34 880.53 594.98 874.15 579.61 868.21 564.25 863.19 548.89 859.44 533.52 857.28 518.16 856.86 502.79 858.21 487.43 861.23 472.07 865.69 456.7 871.24 441.34 877.47 425.98 883.89 410.61 890.01 395.25 895.37 379.89 899.54 364.52 902.22 349.16 903.19 333.8 902.39 318.43 899.86 303.07 895.82 287.7 890.56 272.34 884.49 256.98 878.08 241.61 871.81 226.25 866.17 210.89 861.59 195.52 858.42 180.16 856.91 164.8 857.16 149.43 859.17 134.07 862.77 118.71 867.69 103.34 873.56 87.98 879.92 72.61 886.28 57.25 892.17 41.89 897.12 26.52 900.75 11.16 902.8 -4.19 903.1 -19.56 901.62 -34.92 898.49 -50.28 893.94 -65.65 888.32 -81.01 882.06 -80.64 867.04 -80.07 852.02 -79.48 837 -79.04 821.98 -78.9 806.96 -79.08 791.94 -79.54 776.92 -80.13 761.9 -80.69 746.88 -81.03 731.86 -81.07 716.84 -80.78 701.82 -80.25 686.8 -79.65 671.78 -79.15 656.76 -78.91 641.74 -78.99 626.72 -79.37 611.7 -79.94 596.68 -80.53 581.66 -80.96 566.64 -81.09 551.62 -80.9 536.6 -80.43 521.58 -79.84 506.56 -79.29 491.54 -78.95 476.52 -78.93 461.5 -79.23 446.48 -79.76 431.46 -80.36 416.44 -80.85 401.42 -81.09 386.4 -80.99 371.38 -80.6 356.36 -80.02 341.34 -79.44 326.32 -79.02 311.3 -78.9 296.28 -79.1 281.26 -79.58 266.24 -80.18 251.22 -80.72 236.2 -81.05 221.18 -81.06 206.16 -80.75 191.14 -80.21 176.12 -79.61 161.1 -79.12 146.08 -78.9 131.06 -79.01 116.04 -79.41 101.02 -79.99 86 -80.57 70.98 -80.98 55.96 -81.09 40.94 -80.87 25.92 -80.39 10.9 -79.79 -4.11 -79.25 -19.13 -78.94 -34.15 -78.94 -49.17 -79.26 -64.19 -79.8 -79.21" fill="url(#uuunion-grad)"></path><path d="M-79.8 -79.21Q-79.26 -64.19 -78.94 -49.17 -78.94 -34.15 -79.25 -19.13 -79.79 -4.11 -80.39 10.9 -80.87 25.92 -81.09 40.94 -80.98 55.96 -80.57 70.98 -79.99 86 -79.41 101.02 -79.01 116.04 -78.9 131.06 -79.12 146.08 -79.61 161.1 -80.21 176.12 -80.75 191.14 -81.06 206.16 -81.05 221.18 -80.72 236.2 -80.18 251.22 -79.58 266.24 -79.1 281.26 -78.9 296.28 -79.02 311.3 -79.44 326.32 -80.02 341.34 -80.6 356.36 -80.99 371.38 -81.09 386.4 -80.85 401.42 -70.65 404.33 -60.44 407.09 -50.24 409.61 -40.03 411.8 -29.83 413.59 -19.62 414.91 -0.5 415.92 2.8 415.98 15.7 409.08 28.59 401.38 41.43 392.96 54.15 383.95 66.71 374.5 79.08 364.78 91.23 354.98 103.15 345.3 114.86 335.9 126.39 326.95 137.78 318.6 149.1 310.94 160.42 304.04 171.83 297.93 183.41 292.58 195.24 287.94 207.38 283.92 219.89 280.39 232.81 277.2 246.12 274.18 259.83 271.17 273.88 267.98 288.2 264.46 302.7 260.47 317.28 255.9 331.8 250.66 346.14 244.71 360.18 238.05 373.8 230.7 386.92 222.74 399.46 214.26 411.38 205.39 422.69 196.27 433.41 187.06 443.61 177.92 453.39 168.99 462.9 160.42 472.27 152.33 481.69 144.79 491.33 137.89 501.36 131.63 511.93 126.01 523.19 120.99 535.21 116.49 548.08 112.41 561.78 108.63 576.31 105.02 591.56 101.43 607.41 97.72 623.7 93.76 640.24 89.43 656.8 84.64 673.15 79.31 689.08 73.41 704.38 66.93 718.86 59.89 732.4 52.34 744.89 44.36 756.3 36.05 766.65 27.52 776.04 18.9 784.59 10.31 792.5 1.88 800 -6.26 786.71 -23.6 778.82 -40.94 779.51 -58.27 788.51 -75.61 802.17 -92.94 814.95 -110.28 821.66 -127.61 819.58 -144.95 804.33 -143.08 789.07 -140.98 773.82 -138.81 758.56 -136.73 743.31 -134.89 728.05 -133.44 712.8 -132.49 697.54 -132.1 682.29 -132.31 667.04 -133.11 651.78 -134.42 636.53 -136.16 621.27 -138.19 606.02 -140.35 590.76 -142.49 575.51 -144.44 560.25 -146.05 545 -147.2 529.74 -147.81 514.49 -147.83 499.23 -147.25 483.98 -146.12 468.73 -144.53 453.47 -142.6 438.22 -140.47 422.96 -138.3 407.71 -136.26 392.45 -134.5 377.2 -133.16 361.94 -132.34 346.69 -132.1 331.43 -132.45 316.18 -133.38 300.92 -134.8 285.67 -136.62 270.42 -138.7 255.16 -140.87 239.91 -142.98 224.65 -144.86 209.4 -146.37 194.14 -147.4 178.89 -147.87 163.63 -147.74 148.38 -147.03 133.12 -145.78 117.87 -144.1 102.61 -142.1 87.36 -139.95 72.11 -137.8 56.85 -135.81 41.6 -134.14 26.34 -132.92 11.09 -132.23 -4.16 -132.13 -19.41 -132.62 -34.67 -133.68 -49.92 -135.21 -65.18 -137.1 -80.43 -139.21 -95.69 -141.39 -110.94 -143.45 -126.19 -145.26 -136.44 -133.19 -118.66 -114.68 -108.86 -105.98 -99.08 -97.14 -89.38 -88.21 -79.8 -79.21" fill="url(#uuunion-grad2)" filter="url(#uuunion-blur)"></path><path d="M817.13 389.96Q827.34 387.84 837.54 386.13 847.75 384.9 857.95 384.18 868.16 384 878.36 384.37 888.27 393.39 874.78 416.31 863.16 431.12 856.6 445.94 857.07 460.75 864.44 475.56 876.49 490.37 889.59 505.19 899.81 520 904.06 534.81 901.08 549.63 891.75 564.44 878.89 579.25 866.36 594.06 857.93 608.88 856.14 623.69 861.52 638.5 872.46 653.32 885.67 668.13 897.17 682.94 903.5 697.75 902.77 712.57 895.18 727.38 883.03 742.19 869.96 757.01 859.91 771.82 855.91 786.63 859.14 801.44 868.65 816.26 881.57 831.07 891.08 851.98 874.05 856.87 859.95 857.16 845.85 858.92 831.75 862.05 817.65 866.33 803.55 871.5 789.45 877.22 775.35 883.12 761.25 888.82 747.16 893.94 733.06 898.17 718.96 901.22 704.86 902.89 690.76 903.09 676.66 901.8 662.56 899.09 648.46 895.16 634.36 890.24 620.26 884.66 606.16 878.78 592.06 872.97 577.96 867.62 563.86 863.07 549.77 859.62 535.67 857.48 521.57 856.8 507.47 857.61 493.37 859.87 479.27 863.44 465.17 868.07 451.07 873.47 436.97 879.3 422.87 885.17 408.77 890.71 394.67 895.55 380.57 899.39 366.48 901.97 352.38 903.14 338.28 902.8 324.18 901 310.08 897.84 295.98 893.52 281.88 888.33 267.78 882.6 253.68 876.7 239.58 871.02 225.48 865.91 211.38 861.72 197.28 858.71 183.18 857.07 169.09 856.91 154.99 858.25 140.89 860.99 126.79 864.96 112.69 869.9 98.59 875.5 84.49 881.38 70.39 887.18 56.29 892.51 42.19 897.03 28.09 900.45 6.85 897.8 -0.58 882.89 -0.93 872.74 -1.29 862.59 -1.6 852.44 -1.84 842.29 -1.71 827.07 -0.97 822 11.3 815.07 23.71 807.01 36.28 797.93 49.03 787.99 61.98 777.39 75.09 766.37 88.36 755.19 101.72 744.1 115.13 733.37 128.5 723.23 141.78 713.88 154.88 705.49 167.74 698.15 180.31 691.91 192.56 686.77 204.45 682.65 216 679.43 227.23 676.95 238.21 675 248.99 673.33 259.68 671.71 270.38 669.89 281.2 667.64 292.26 664.74 303.65 661.03 315.48 656.38 327.8 650.7 340.67 643.99 354.09 636.27 368.06 627.64 382.51 618.22 397.36 608.2 412.5 597.78 427.79 587.19 443.08 576.65 458.2 566.41 473 556.65 487.33 547.58 501.07 539.33 514.1 531.99 526.38 525.63 537.87 520.23 548.61 515.73 558.65 512.04 568.1 509.02 577.11 506.47 585.86 504.21 594.55 502.01 603.39 499.66 612.58 496.96 622.33 493.72 632.81 489.78 644.17 485.03 656.48 479.4 669.81 472.86 684.14 465.44 699.4 457.22 715.47 448.31 732.18 438.85 749.32 429.02 766.64 419.02 783.9 409.05 800.81 399.3 817.13 389.96 817.13 389.96 817.13 389.96" fill="url(#uuunion-grad3)" filter="url(#uuunion-blur2)"></path></svg>