<svg xmlns="http://www.w3.org/2000/svg" xmlns:xlink="http://www.w3.org/1999/xlink" viewBox="0 0 558.57 458.35"><defs><style>.cls-1{fill:none;}.cls-2{fill:#66cdff;}.cls-3{fill:#006ebf;}.cls-4{fill:#009cf2;}.cls-5{fill:url(#mmmotif-pattern);}</style><pattern id="mmmotif-pattern" data-name="mmmotif-pattern" width="40" height="40" patternTransform="matrix(-2.18, 3.36, -3.2, -2.41, 154.83, -107.68)" patternUnits="userSpaceOnUse" viewBox="0 0 40 40"><rect class="cls-1" width="40" height="40"/><rect class="cls-1" width="40" height="40"/><path class="cls-2" d="M9.39,21.16v-9l6.37,3.68-3.46,7Z"/><path class="cls-2" d="M9.39,28.51v-9L13.64,22v9Z"/><path class="cls-3" d="M13.64,31V22L20,18.28v9Z"/><path class="cls-2" d="M20,27.28v-9L26.36,22v9Z"/><path class="cls-3" d="M26.36,31V22l4.25-2.45v9Z"/><path class="cls-3" d="M30.61,21.16v-9l-6.37,3.68,3.46,7Z"/><path class="cls-4" d="M13.64,9.71,9.39,12.16l6.37,3.68L9.39,19.51,13.64,22,20,18.29,26.36,22l4.25-2.45-6.37-3.67,6.37-3.68L26.36,9.75,20,13.39Z"/></pattern></defs><g id="Capa_2" data-name="Capa 2"><g id="Capa_1-2" data-name="Capa 1"><g id="Capa_2-2" data-name="Capa 2"><g id="Capa_1-2-2" data-name="Capa 1-2"><rect class="cls-5" width="558.57" height="458.35"/></g></g></g></g></svg>