<?xml version="1.0" encoding="UTF-8"?>
<svg enable-background="new 0 0 3000 3000" version="1.1" viewBox="0 0 3e3 3e3" xml:space="preserve" xmlns="http://www.w3.org/2000/svg"><style type="text/css">
	.st0{fill:#0ACF83;}
	.st1{fill:#A259FF;}
	.st2{fill:#F24E1E;}
	.st3{fill:#FF7262;}
	.st4{fill:#1ABCFE;}
</style><path class="st0" d="m1083.3 2750c230 0 416.67-186.67 416.67-416.67v-416.67h-416.67c-230 0-416.67 186.67-416.67 416.67s186.67 416.67 416.67 416.67z"/><path class="st1" d="m666.67 1500c0-230 186.67-416.67 416.67-416.67h416.67v833.33h-416.67c-230 0-416.67-186.67-416.67-416.67z"/><path class="st2" d="m666.67 666.67c0-230 186.67-416.67 416.67-416.67h416.67v833.33h-416.67c-230 0-416.67-186.67-416.67-416.67z"/><path class="st3" d="m1500 250h416.67c230 0 416.67 186.67 416.67 416.67s-186.67 416.67-416.67 416.67h-416.67v-833.33z"/><path class="st4" d="m2333.3 1500c0 230-186.67 416.67-416.67 416.67s-416.67-186.67-416.67-416.67 186.67-416.67 416.67-416.67 416.67 186.67 416.67 416.67z"/></svg>
