<?xml version="1.0" encoding="UTF-8"?>
<svg enable-background="new 0 0 24 24" version="1.1" viewBox="0 0 24 24" xml:space="preserve" xmlns="http://www.w3.org/2000/svg"><path d="m23.562 10.932c-9.766e-4 0-9.766e-4 -4.883e-4 -9.766e-4 -4.883e-4l-10.499-10.506c-0.56641-0.56775-1.5576-0.56726-2.1221-4.883e-4l-10.501 10.507c-0.28223 0.28387-0.43848 0.66058-0.43848 1.0607 0 0.40063 0.15625 0.77777 0.43945 1.0612l10.499 10.506c0.2832 0.28387 0.66016 0.44025 1.0615 0.44025s0.77832-0.15637 1.0605-0.43976l10.5-10.506c0.2832-0.28339 0.43945-0.66052 0.43945-1.0612 0-0.40015-0.15625-0.77686-0.43848-1.0607z" fill="#EF473B"/><path d="m23.681 12.69-10.609 10.616c-0.28516 0.28632-0.66608 0.44434-1.0716 0.44434s-0.78644-0.15802-1.0726-0.44482l-10.608-10.615c-0.12396-0.12408-0.21869-0.26837-0.29211-0.42224 0.054565 0.29596 0.19531 0.56891 0.41254 0.78625l10.499 10.506c0.2832 0.28387 0.66016 0.44025 1.0615 0.44025s0.77832-0.15637 1.0605-0.43976l10.5-10.506c0.21722-0.21735 0.35803-0.4903 0.4126-0.78625-0.073425 0.15387-0.16821 0.29816-0.29218 0.42224z" fill="#010101" opacity=".1"/><path d="m17 10c-0.37488 0-0.72198 0.11005-1.0222 0.29028l-2.2681-2.2681c0.18018-0.30017 0.29028-0.64728 0.29028-1.0222 0-1.103-0.89746-2-2-2-0.36987 0-0.71228 0.10779-1.0098 0.28357l-2.4537-2.454-0.70685 0.70721 2.4537 2.454c-0.17554 0.29736-0.28326 0.63959-0.28326 1.0093 0 0.92932 0.64001 1.7054 1.5 1.929v6.1421c-0.85999 0.22357-1.5 0.99963-1.5 1.929 0 1.103 0.89746 2 2 2s2-0.89697 2-2c0-0.92932-0.64001-1.7054-1.5-1.929v-6.1421c0.17676-0.04596 0.34253-0.11584 0.49689-0.20551l2.2797 2.2797c-0.1712 0.29468-0.27655 0.6322-0.27655 0.99689 0 1.103 0.89746 2 2 2s2-0.89697 2-2-0.89746-2-2-2z" fill="#fff"/><path d="m0.43848 11.182 10.501-10.507c0.56445-0.56677 1.5557-0.56726 2.1221 4.883e-4l10.499 10.506s0 4.883e-4 9.766e-4 4.883e-4c0.25232 0.25378 0.39697 0.58325 0.42627 0.93579 0.0034791-0.04187 0.012207-0.082581 0.012207-0.12506 0-0.40015-0.15625-0.77686-0.43848-1.0607-9.766e-4 0-9.766e-4 -4.883e-4 -9.766e-4 -4.883e-4l-10.499-10.506c-0.56641-0.56775-1.5576-0.56726-2.1221-4.883e-4l-10.501 10.507c-0.28223 0.28387-0.43848 0.66058-0.43848 1.0607 0 0.042419 0.008728 0.08313 0.012207 0.12494 0.029358-0.35254 0.17401-0.68195 0.42627-0.93567z" fill="#fff" opacity=".2"/><linearGradient id="b" x1="9.6693" x2="18.307" y1="9.6761" y2="18.313" gradientUnits="userSpaceOnUse"><stop stop-color="#010101" stop-opacity=".1" offset="0"/><stop stop-color="#010101" stop-opacity="0" offset="1"/></linearGradient><path d="m18.549 10.75c0.27771 0.34344 0.45117 0.77448 0.45117 1.2496 0 1.103-0.89746 2-2 2s-2-0.89697-2-2c0-0.36469 0.10535-0.70221 0.27655-0.99689l-2.2797-2.2797c-0.15436 0.089661-0.32013 0.15955-0.49689 0.20551v6.1421c0.85999 0.22357 1.5 0.99963 1.5 1.929 0 1.103-0.89746 2-2 2-0.51147 0-0.97382-0.19867-1.3279-0.51575l3.7318 3.7318 7.8029-7.8077-3.658-3.658zm-4.8391-2.7281 2.2681 2.2681c0.30023-0.18024 0.64734-0.29028 1.0222-0.29028 0.4751 0 0.90625 0.17352 1.2498 0.45136l-4.6777-4.6777-0.0024415 0.0020141c0.26544 0.33942 0.4303 0.76099 0.4303 1.2244 0 0.37494-0.11011 0.72205-0.29028 1.0222z" fill="url(#b)"/><linearGradient id="a" x1="2.0138" x2="21.983" y1="7.3399" y2="16.652" gradientUnits="userSpaceOnUse"><stop stop-color="#fff" stop-opacity=".2" offset="0"/><stop stop-color="#fff" stop-opacity="0" offset="1"/></linearGradient><path d="m23.562 10.932c-9.766e-4 0-9.766e-4 -4.883e-4 -9.766e-4 -4.883e-4l-10.499-10.506c-0.56641-0.56775-1.5576-0.56726-2.1221-4.883e-4l-10.501 10.507c-0.28223 0.28387-0.43848 0.66058-0.43848 1.0607 0 0.40063 0.15625 0.77777 0.43945 1.0612l10.499 10.506c0.2832 0.28387 0.66016 0.44025 1.0615 0.44025s0.77832-0.15637 1.0605-0.43976l10.5-10.506c0.2832-0.28339 0.43945-0.66052 0.43945-1.0612 0-0.40015-0.15625-0.77686-0.43848-1.0607z" fill="url(#a)"/></svg>
