<svg xmlns="http://www.w3.org/2000/svg" xmlns:xlink="http://www.w3.org/1999/xlink" viewBox="0 0 144.5 144.5"><defs><style>.cls-1{fill:none;}.cls-2{fill:#66cdff;}.cls-3{fill:#006ebf;}.cls-4{fill:#009cf2;}.cls-5{fill:url(#mmmotif-pattern);}</style><pattern id="mmmotif-pattern" data-name="mmmotif-pattern" width="40" height="40" patternTransform="matrix(-2.18, 3.36, 3.2, 2.41, 56.83, 801.08)" patternUnits="userSpaceOnUse" viewBox="0 0 40 40"><rect class="cls-1" width="40" height="40"/><path class="cls-2" d="M9.39,18.84v9l6.37-3.68-3.46-7Z"/><path class="cls-2" d="M9.39,11.49v9L13.64,18V9Z"/><path class="cls-3" d="M13.64,9v9L20,21.72v-9Z"/><path class="cls-2" d="M20,12.72v9L26.36,18V9Z"/><path class="cls-3" d="M26.36,9v9l4.25,2.45v-9Z"/><path class="cls-3" d="M30.61,18.84v9l-6.37-3.68,3.46-7Z"/><path class="cls-4" d="M13.64,30.29,9.39,27.84l6.37-3.68L9.39,20.49,13.64,18,20,21.71,26.36,18l4.25,2.45-6.37,3.67,6.37,3.68-4.25,2.45L20,26.61Z"/></pattern></defs><g id="Capa_2" data-name="Capa 2"><g id="Capa_1-2" data-name="Capa 1"><rect class="cls-5" width="144.5" height="144.5"/></g></g></svg>