<?xml version="1.0" encoding="UTF-8"?>
<svg enable-background="new 0 0 32 32" version="1.1" viewBox="0 0 32 32" xml:space="preserve" xmlns="http://www.w3.org/2000/svg"><path d="m27.515 6.743-6-3.6c-0.027-0.016-0.057-0.024-0.086-0.037-0.397-0.238-0.91-0.195-1.239 0.157l-8.419 9.021-4.64-4.254c-0.306-0.28-0.754-0.341-1.123-0.157l-2.411 1.205c-0.283 0.141-0.482 0.406-0.537 0.717s0.038 0.629 0.253 0.859l4.989 5.346-4.989 5.346c-0.215 0.23-0.309 0.549-0.253 0.859s0.255 0.576 0.537 0.717l2.411 1.206c0.142 0.071 0.295 0.105 0.447 0.105 0.229 0 0.457-0.079 0.641-0.232l4.879-4.066 8.215 8.802c0.197 0.211 0.464 0.318 0.731 0.318 0.183 0 0.359-0.067 0.52-0.167 0.024-0.012 0.05-0.017 0.073-0.031l6-3.6c0.301-0.18 0.486-0.506 0.486-0.857v-16.8c0-0.351-0.185-0.677-0.485-0.857zm-21.198 15.303-0.629-0.314 3.981-4.266 0.938 1.005-4.29 3.575zm13.683 3.556-14.312-15.334 0.599-0.299 13.713 12.571v3.062zm0-5.776-3.759-3.446 3.759-3.132v6.578zm0-9.182-5.247 4.372-1.507-1.382 6.754-7.236v4.246zm6 13.189-4 2.4v-20.467l4 2.4v15.667z"/></svg>
