<?xml version="1.0" encoding="UTF-8"?>
<svg enable-background="new 0 0 447.674 447.674" version="1.1" viewBox="0 0 447.67 447.67" xml:space="preserve" xmlns="http://www.w3.org/2000/svg"><g fill="#00769D"><path d="m134.29 138.16h-24.722l67.399 190.52 37.732-107.82-29.254-82.696h-26.084v-18.154h115.51v18.154h-27.049l67.398 190.52 24.227-69.234c31.781-88.702-26.048-116.33-26.048-136.13s16.048-35.843 35.843-35.843c1.071 0 2.111 0.058 3.13 0.153-33.541-31.663-78.768-51.08-128.53-51.08-65.027 0-122.31 33.146-155.88 83.458h66.336v18.154h2e-3z"/><path d="m36.548 223.84c0 71.704 40.302 133.99 99.483 165.46l-84.52-238.92c-9.628 22.556-14.963 47.385-14.963 73.461z"/><path d="m386.83 131.55c2.679 15.774 1.868 33.503-2.243 51.301h0.745l-2.832 8.092c-1.678 5.843-3.791 11.82-6.191 17.693l-64.444 180.54c59.057-31.51 99.256-93.725 99.256-165.34 0-33.557-8.834-65.048-24.291-92.289z"/><path d="m166.08 402.03c18.195 5.894 37.603 9.091 57.762 9.091 19.228 0 37.777-2.902 55.239-8.285l-54.784-154.86-58.217 154.06z"/><path d="m382.11 65.56c-42.277-42.277-98.488-65.56-158.28-65.56s-116 23.283-158.28 65.56-65.56 98.487-65.56 158.28c0 59.789 23.283 116 65.56 158.28s98.488 65.56 158.28 65.56 116-23.283 158.28-65.56c42.277-42.277 65.56-98.488 65.56-158.28-1e-3 -59.79-23.284-116-65.561-158.28zm-158.28 366.32c-114.72 0-208.05-93.329-208.05-208.05s93.329-208.05 208.05-208.05 208.05 93.33 208.05 208.05-93.328 208.05-208.05 208.05z"/></g></svg>
